<svg id="visual" viewBox="0 0 900 600" width="900" height="600" xmlns="http://www.w3.org/2000/svg" xmlns:xlink="http://www.w3.org/1999/xlink" version="1.1"><rect x="0" y="0" width="900" height="600" fill="#001220"></rect><path d="M0 401L21.5 406.8C43 412.7 86 424.3 128.8 424.7C171.7 425 214.3 414 257.2 413C300 412 343 421 385.8 412.3C428.7 403.7 471.3 377.3 514.2 378.7C557 380 600 409 642.8 413.7C685.7 418.3 728.3 398.7 771.2 396C814 393.3 857 407.7 878.5 414.8L900 422L900 601L878.5 601C857 601 814 601 771.2 601C728.3 601 685.7 601 642.8 601C600 601 557 601 514.2 601C471.3 601 428.7 601 385.8 601C343 601 300 601 257.2 601C214.3 601 171.7 601 128.8 601C86 601 43 601 21.5 601L0 601Z" fill="#fa7268"></path><path d="M0 479L21.5 468C43 457 86 435 128.8 425.8C171.7 416.7 214.3 420.3 257.2 418.8C300 417.3 343 410.7 385.8 414.2C428.7 417.7 471.3 431.3 514.2 430C557 428.7 600 412.3 642.8 412.7C685.7 413 728.3 430 771.2 443.2C814 456.3 857 465.7 878.5 470.3L900 475L900 601L878.5 601C857 601 814 601 771.2 601C728.3 601 685.7 601 642.8 601C600 601 557 601 514.2 601C471.3 601 428.7 601 385.8 601C343 601 300 601 257.2 601C214.3 601 171.7 601 128.8 601C86 601 43 601 21.5 601L0 601Z" fill="#ef5f67"></path><path d="M0 485L21.5 481.2C43 477.3 86 469.7 128.8 471C171.7 472.3 214.3 482.7 257.2 479.8C300 477 343 461 385.8 452.5C428.7 444 471.3 443 514.2 443C557 443 600 444 642.8 454C685.7 464 728.3 483 771.2 487C814 491 857 480 878.5 474.5L900 469L900 601L878.5 601C857 601 814 601 771.2 601C728.3 601 685.7 601 642.8 601C600 601 557 601 514.2 601C471.3 601 428.7 601 385.8 601C343 601 300 601 257.2 601C214.3 601 171.7 601 128.8 601C86 601 43 601 21.5 601L0 601Z" fill="#e34c67"></path><path d="M0 481L21.5 490.5C43 500 86 519 128.8 524.5C171.7 530 214.3 522 257.2 516.7C300 511.3 343 508.7 385.8 507.3C428.7 506 471.3 506 514.2 509.5C557 513 600 520 642.8 516.2C685.7 512.3 728.3 497.7 771.2 492.3C814 487 857 491 878.5 493L900 495L900 601L878.5 601C857 601 814 601 771.2 601C728.3 601 685.7 601 642.8 601C600 601 557 601 514.2 601C471.3 601 428.7 601 385.8 601C343 601 300 601 257.2 601C214.3 601 171.7 601 128.8 601C86 601 43 601 21.5 601L0 601Z" fill="#d53867"></path><path d="M0 546L21.5 548.7C43 551.3 86 556.7 128.8 558.3C171.7 560 214.3 558 257.2 557.8C300 557.7 343 559.3 385.8 561.3C428.7 563.3 471.3 565.7 514.2 562.2C557 558.7 600 549.3 642.8 544.2C685.7 539 728.3 538 771.2 536.7C814 535.3 857 533.7 878.5 532.8L900 532L900 601L878.5 601C857 601 814 601 771.2 601C728.3 601 685.7 601 642.8 601C600 601 557 601 514.2 601C471.3 601 428.7 601 385.8 601C343 601 300 601 257.2 601C214.3 601 171.7 601 128.8 601C86 601 43 601 21.5 601L0 601Z" fill="#c62368"></path></svg>